<svg width="190" height="180" viewBox="0 0 190 180" fill="none" xmlns="http://www.w3.org/2000/svg">
<path d="M35.8429 1.27466C36.8564 0.495064 38.2262 0.363122 39.3699 0.934941V0.934941C40.6443 1.57216 41.3736 2.94829 41.1852 4.36065L39.9634 13.5244C39.658 15.8152 39.8435 18.1448 40.5076 20.3585L44 32L45.4532 34.3009C47.8554 38.1044 53.0658 38.9058 56.5 36V36L57.5544 34.8929C63.4776 28.6735 70.3854 23.4728 78 19.5V19.5H93.1169C102.892 19.5 112.52 21.879 121.17 26.4317L132.85 32.5788C135.235 33.8342 137.926 34.392 140.613 34.1884L156.296 33.0003C158.741 32.8151 159.56 36.197 157.301 37.1506L151.082 39.7767C149.254 40.5485 148.931 43.0019 150.497 44.22V44.22C151.13 44.7122 151.5 45.4688 151.5 46.2704V47.956C151.5 51.294 154.206 54 157.544 54H170.41C172.096 54 173.741 54.5185 175.122 55.4853L175.933 56.0528C177.253 56.9771 178.894 57.3212 180.475 57.0051L180.636 56.9728C182.143 56.6713 183.708 57.0115 184.954 57.9116L188.111 60.1912C189.922 61.4989 189.759 64.2451 187.806 65.3298V65.3298C187.603 65.4429 187.387 65.5323 187.163 65.5963L182.514 66.9247C181.178 67.3064 179.795 67.5 178.406 67.5H155.945C152.878 67.5 151.127 71.002 152.967 73.456V73.456C153.891 74.6876 153.961 76.3607 153.144 77.6654L139.248 99.8536C129.814 114.918 111.896 122.383 94.556 118.473L72.6424 113.532C72.5478 113.511 72.451 113.5 72.354 113.5V113.5C71.3266 113.5 70.6982 114.628 71.239 115.502L83 134.5L98.7009 154.687C99.8976 156.225 101.238 157.646 102.705 158.93L118.331 172.602C119.609 173.72 119.97 175.559 119.211 177.078V177.078C118.489 178.522 116.919 179.338 115.322 179.098L109.066 178.16C108.357 178.054 107.658 177.886 106.977 177.659L102.713 176.238C101.243 175.748 99.7185 175.444 98.1737 175.334V175.334C95.1062 175.115 92.1415 174.135 89.5469 172.484L82.199 167.808C78.7446 165.61 75.5568 163.019 72.6995 160.086L63.3791 150.521C59.8364 146.885 57.1368 142.514 55.4717 137.718L47.0068 113.34C46.1449 110.857 47.2584 108.121 49.6087 106.946V106.946C51.3807 106.06 52.5 104.249 52.5 102.267V101.909C52.5 100.669 52.1031 99.4614 51.3674 98.4629L48.0919 94.0176C46.4621 91.8057 43.8781 90.5 41.1306 90.5V90.5C39.1078 90.5 37.149 91.2092 35.595 92.5042L33.083 94.5975C30.4199 96.8168 27.1631 98.2041 23.7177 98.5869L11 100V100C-0.479206 100 -3.81246 84.3255 6.67344 79.6546L16 75.5L35.1791 66.3464C36.9817 65.486 38.3568 63.9295 38.9885 62.0346L40.8481 56.4558C41.1997 55.4008 40.5788 54.2697 39.5 54V54V54C31.2521 52.8217 24.8376 46.2273 23.8877 37.9501L22.37 24.724C22.125 22.5892 22.2329 20.4287 22.6894 18.329L23.072 16.5686C23.9942 12.3268 26.3874 8.54816 29.828 5.90152L35.8429 1.27466Z" fill="#123F67"/>
</svg>
