<svg width="232" height="180" viewBox="0 0 232 180" fill="none" xmlns="http://www.w3.org/2000/svg">
<path d="M75.3429 1.27466C76.3564 0.495064 77.7262 0.363122 78.8699 0.934941V0.934941C80.1443 1.57216 80.8736 2.94829 80.6852 4.36065L79.4634 13.5244C79.158 15.8152 79.3435 18.1448 80.0076 20.3585L83.1567 30.8557C83.3845 31.615 83.7146 32.3398 84.138 33.0101L84.9532 34.3009C87.3554 38.1044 92.5658 38.9058 96 36V36L102.389 29.2913C104.78 26.7809 107.568 24.6818 110.642 23.0782V23.0782C115.147 20.7275 120.154 19.5 125.236 19.5H132.617C142.392 19.5 152.02 21.879 160.67 26.4317L174.686 33.8082C175.544 34.2602 176.513 34.4611 177.481 34.3878L189.954 33.4429C193.48 33.1757 194.661 38.0541 191.404 39.4296L190.582 39.7767C188.754 40.5485 188.431 43.0019 189.997 44.22V44.22C190.63 44.7122 191 45.4688 191 46.2704V47.956C191 51.294 193.706 54 197.044 54H209.91C211.596 54 213.241 54.5185 214.622 55.4853L215.433 56.0528C216.753 56.9771 218.394 57.3212 219.975 57.0051L220.136 56.9728C221.643 56.6713 223.208 57.0115 224.454 57.9116L227.611 60.1912C229.422 61.4989 229.259 64.2451 227.306 65.3298V65.3298C227.103 65.4429 226.887 65.5323 226.663 65.5963L222.014 66.9247C220.678 67.3064 219.295 67.5 217.906 67.5H195.445C192.378 67.5 190.627 71.002 192.467 73.456V73.456C193.391 74.6876 193.461 76.3607 192.644 77.6654L178.748 99.8536C169.314 114.918 151.396 122.383 134.056 118.473L112.142 113.532C112.048 113.511 111.951 113.5 111.854 113.5V113.5C110.827 113.5 110.198 114.628 110.739 115.502L122.5 134.5L138.201 154.687C139.398 156.225 140.738 157.646 142.205 158.93L157.831 172.602C159.109 173.72 159.47 175.559 158.711 177.078V177.078C157.989 178.522 156.419 179.338 154.822 179.098L148.566 178.16C147.857 178.054 147.158 177.886 146.477 177.659L140 175.5L133.5 173L127.005 169.753C120.051 166.276 113.729 161.656 108.303 156.088L102.879 150.521C99.3364 146.885 96.6368 142.514 94.9717 137.718L86.5068 113.34C85.6449 110.857 86.7584 108.121 89.1087 106.946V106.946C90.8807 106.06 92 104.249 92 102.267V101.909C92 100.669 91.6031 99.4614 90.8674 98.4629L87.5919 94.0176C85.9621 91.8057 83.3781 90.5 80.6306 90.5V90.5C78.6078 90.5 76.649 91.2092 75.095 92.5042L72.583 94.5975C69.9199 96.8168 66.6631 98.2041 63.2177 98.5869L50.5 100V100C39.0912 100.226 35.5282 84.6762 45.8972 79.9121L55.5 75.5L74.6791 66.3464C76.4817 65.486 77.8568 63.9295 78.4885 62.0346L80.3481 56.4558C80.6997 55.4008 80.0788 54.2697 79 54V54V54C70.7521 52.8217 64.3376 46.2273 63.3877 37.9501L61.9183 25.1455C61.6413 22.7316 61.7633 20.2886 62.2795 17.9143L62.716 15.9063C63.5452 12.0922 65.6971 8.69454 68.7908 6.31474L75.3429 1.27466Z" fill="#123F67"/>
</svg>
